<?xml version="1.0" standalone="no"?><!DOCTYPE svg PUBLIC "-//W3C//DTD SVG 1.1//EN" "http://www.w3.org/Graphics/SVG/1.1/DTD/svg11.dtd"><svg t="1595861925915" class="icon" viewBox="0 0 1024 1024" version="1.1" xmlns="http://www.w3.org/2000/svg" p-id="47313" xmlns:xlink="http://www.w3.org/1999/xlink" width="48" height="48"><defs><style type="text/css"></style></defs><path d="M507.904 0c187.9552 0 350.5152 101.5808 439.3984 253.952H507.9552A252.8256 252.8256 0 0 0 256.512 477.44L99.072 205.7216C193.024 81.3056 340.3264 0 507.904 0z" fill="#E32F30" p-id="47314"></path><path d="M327.6288 601.9072a197.7344 197.7344 0 0 1-22.8864-93.952 203.776 203.776 0 0 1 203.2128-203.2128 203.776 203.776 0 0 1 203.1616 203.2128 203.776 203.776 0 0 1-203.1616 203.1616c-76.1856 0-142.2336-43.1616-177.8176-104.1408l-2.56-5.0688z" fill="#4C8BF5" p-id="47315"></path><path d="M452.096 1013.3504C198.0416 985.3952 0 769.536 0 507.904c0-91.4432 25.3952-180.3264 68.608-253.952l213.2992 370.7392c43.1616 81.3056 126.976 137.1648 226.048 137.1648 35.5328 0 68.5568-7.6288 99.0208-20.3264L452.096 1013.3504z" fill="#17A15F" p-id="47316"></path><path d="M507.904 1015.8592l220.9792-380.928c20.3264-38.0928 33.024-78.7456 33.024-124.416a253.696 253.696 0 0 0-101.5808-203.2128h312.3712c27.9552 63.488 43.1616 132.096 43.1616 203.1616 0 276.8384-225.9968 505.3952-507.904 505.3952z" fill="#FFD443" p-id="47317"></path></svg>