<?xml version="1.0" standalone="no"?><!DOCTYPE svg PUBLIC "-//W3C//DTD SVG 1.1//EN" "http://www.w3.org/Graphics/SVG/1.1/DTD/svg11.dtd"><svg t="1595857597730" class="icon" viewBox="0 0 1024 1024" version="1.1" xmlns="http://www.w3.org/2000/svg" p-id="22269" xmlns:xlink="http://www.w3.org/1999/xlink" width="48" height="48"><defs><style type="text/css"></style></defs><path d="M1024 857.6c0 92.16-74.24 166.4-166.4 166.4h-691.2C74.24 1024 0 949.76 0 857.6v-691.2C0 74.24 74.24 0 166.4 0h691.2C949.76 0 1024 74.24 1024 166.4v691.2z" fill="#C71F1E" p-id="22270"></path><path d="M330.24 0h35.84v25.6c2.56 38.4 20.48 74.24 46.08 99.84 7.68 7.68 15.36 10.24 23.04 15.36l15.36 7.68c35.84 17.92 79.36 17.92 117.76 5.12 20.48-7.68 35.84-20.48 51.2-33.28 20.48-23.04 35.84-51.2 40.96-84.48 2.56-12.8 0-23.04 0-35.84h35.84c2.56 7.68 2.56 15.36 2.56 23.04-2.56 17.92-5.12 33.28-10.24 51.2-7.68 20.48-17.92 40.96-30.72 56.32-28.16 38.4-74.24 61.44-120.32 66.56-25.6 2.56-51.2 2.56-76.8-7.68l-23.04-7.68c-25.6-10.24-46.08-28.16-64-48.64-7.68-7.68-12.8-17.92-17.92-25.6-10.24-15.36-15.36-35.84-20.48-53.76-5.12-17.92-7.68-35.84-5.12-53.76z m120.32 309.76c10.24-2.56 17.92-5.12 28.16-5.12 10.24 15.36 12.8 33.28 17.92 48.64 2.56 17.92 5.12 35.84 7.68 56.32 2.56 12.8 0 25.6 2.56 38.4v35.84c0 17.92-2.56 33.28-2.56 48.64-2.56 10.24 0 20.48-2.56 33.28-5.12-2.56-5.12-7.68-7.68-10.24-17.92-28.16-35.84-56.32-51.2-84.48-15.36-30.72-30.72-61.44-33.28-97.28-5.12-28.16 12.8-53.76 40.96-64z m97.28-5.12c2.56-2.56 5.12 0 7.68 0 12.8 2.56 25.6 5.12 38.4 12.8 10.24 7.68 20.48 17.92 23.04 30.72 5.12 15.36 2.56 33.28 0 48.64-5.12 20.48-12.8 38.4-23.04 58.88-2.56 5.12-7.68 10.24-10.24 17.92-5.12 12.8-12.8 23.04-17.92 33.28-10.24 17.92-23.04 35.84-33.28 51.2-2.56 2.56-2.56 7.68-7.68 2.56-2.56-17.92-2.56-38.4-5.12-56.32-2.56-25.6 0-48.64-2.56-74.24 2.56-15.36 2.56-33.28 2.56-48.64 2.56-17.92 5.12-38.4 12.8-56.32 7.68-5.12 7.68-15.36 15.36-20.48z m-199.68 61.44c2.56 0 2.56 2.56 5.12 2.56 46.08 58.88 84.48 122.88 117.76 189.44 2.56 5.12 5.12 10.24 5.12 17.92l-15.36-7.68c-30.72-15.36-58.88-33.28-89.6-51.2l-30.72-23.04c-17.92-12.8-33.28-35.84-30.72-58.88 5.12-25.6 20.48-48.64 38.4-69.12z m322.56 0h5.12c7.68 10.24 17.92 20.48 25.6 33.28 7.68 12.8 10.24 25.6 10.24 38.4 0 15.36-5.12 30.72-15.36 40.96-5.12 5.12-10.24 12.8-17.92 17.92-35.84 28.16-74.24 48.64-115.2 71.68-5.12 2.56-12.8 7.68-17.92 7.68 0-7.68 5.12-15.36 10.24-23.04 28.16-53.76 58.88-107.52 94.72-156.16 5.12-10.24 15.36-20.48 20.48-30.72zM281.6 491.52c0-2.56 0-5.12 2.56-5.12 5.12 0 7.68 5.12 12.8 5.12 56.32 30.72 112.64 61.44 166.4 97.28 2.56 0 2.56 2.56 2.56 5.12H358.4c-20.48 0-40.96-10.24-56.32-25.6-12.8-15.36-23.04-33.28-23.04-51.2 0-7.68 0-17.92 2.56-25.6z m448-2.56c2.56-2.56 7.68-5.12 10.24-2.56 0 7.68 2.56 15.36 2.56 25.6-2.56 10.24 0 20.48-5.12 30.72-2.56 7.68-7.68 17.92-15.36 23.04-7.68 7.68-12.8 15.36-23.04 17.92-10.24 7.68-23.04 10.24-35.84 10.24h-112.64c0-2.56 2.56-2.56 2.56-5.12 61.44-35.84 120.32-66.56 176.64-99.84z m-368.64 120.32c20.48-2.56 40.96 0 61.44-2.56h43.52c-2.56 5.12-10.24 7.68-15.36 12.8-15.36 10.24-30.72 20.48-48.64 28.16-15.36 7.68-38.4 5.12-51.2-5.12-12.8-7.68-20.48-20.48-28.16-30.72 12.8-2.56 25.6-2.56 38.4-2.56z m197.12-2.56h43.52c20.48 2.56 38.4 0 58.88 2.56 12.8 0 28.16 0 40.96 2.56-5.12 10.24-12.8 17.92-20.48 25.6-12.8 12.8-30.72 20.48-48.64 15.36-15.36-5.12-28.16-15.36-40.96-23.04-7.68-5.12-15.36-10.24-20.48-15.36-5.12 0-10.24-2.56-12.8-7.68z m-279.04 87.04h17.92v30.72h38.4v-30.72h17.92V768h-17.92v-30.72h-38.4V768h-17.92v-74.24z m87.04 0h17.92V742.4c0 7.68 5.12 15.36 15.36 15.36 7.68 2.56 20.48 0 23.04-10.24v-53.76h17.92V742.4c0 5.12 0 12.8-5.12 17.92-12.8 7.68-28.16 7.68-38.4 7.68-7.68 0-15.36 0-20.48-5.12-7.68-5.12-10.24-12.8-10.24-20.48v-48.64z m107.52 0h17.92c2.56 7.68 7.68 15.36 10.24 23.04 7.68 10.24 10.24 23.04 15.36 33.28 2.56 5.12 5.12 12.8 7.68 17.92h-17.92c-2.56-5.12-5.12-12.8-7.68-17.92h-35.84c-2.56 5.12-2.56 12.8-7.68 17.92h-15.36c0-7.68 5.12-12.8 7.68-17.92 2.56-7.68 7.68-17.92 10.24-25.6 7.68-10.24 10.24-23.04 15.36-30.72m-2.56 40.96c7.68 2.56 15.36 2.56 23.04 0-5.12-7.68-7.68-17.92-12.8-25.6-5.12 7.68-7.68 17.92-10.24 25.6z m46.08-40.96h17.92c2.56 7.68 2.56 15.36 5.12 20.48 5.12 10.24 5.12 23.04 10.24 35.84h2.56c2.56-15.36 10.24-28.16 10.24-46.08 0-2.56 2.56-7.68 2.56-10.24h23.04c5.12 15.36 10.24 28.16 12.8 43.52 2.56 5.12 2.56 10.24 5.12 12.8 2.56-17.92 12.8-35.84 15.36-56.32 5.12-2.56 12.8 0 17.92 0-7.68 25.6-17.92 48.64-25.6 74.24h-20.48c-2.56 0-2.56-5.12-2.56-5.12-5.12-15.36-7.68-30.72-15.36-46.08-2.56 5.12-2.56 10.24-5.12 12.8-2.56 12.8-7.68 25.6-10.24 38.4h-20.48c-5.12-10.24-7.68-20.48-12.8-30.72-5.12-12.8-7.68-25.6-15.36-38.4 5.12-2.56 5.12-5.12 5.12-5.12z m138.24 10.24c5.12-5.12 10.24-10.24 17.92-10.24h38.4v12.8h-33.28c-7.68 0-12.8 7.68-12.8 17.92h46.08v12.8H665.6c-2.56 7.68 2.56 15.36 10.24 17.92 12.8 2.56 23.04 0 35.84 0v12.8h-38.4c-12.8-2.56-23.04-10.24-25.6-23.04-2.56-15.36-2.56-30.72 7.68-40.96z m71.68-10.24c5.12-2.56 12.8 0 17.92 0v71.68h-17.92v-71.68z" fill="#FFFFFF" p-id="22271"></path></svg>