<?xml version="1.0" standalone="no"?><!DOCTYPE svg PUBLIC "-//W3C//DTD SVG 1.1//EN" "http://www.w3.org/Graphics/SVG/1.1/DTD/svg11.dtd"><svg t="1595859606142" class="icon" viewBox="0 0 1024 1024" version="1.1" xmlns="http://www.w3.org/2000/svg" p-id="36129" xmlns:xlink="http://www.w3.org/1999/xlink" width="48" height="48"><defs><style type="text/css"></style></defs><path d="M824.699904 225.497088l-57.056256 0-21.397504-57.265152-21.39648 57.265152-57.05728 0 46.359552 35.795968-21.4016 64.420864 53.494784-39.370752 53.48864 39.370752-21.393408-64.420864L824.699904 225.497088 824.699904 225.497088zM683.292672 411.964416l-40.950784 0-15.355904-41.101312-15.356928 41.101312-40.946688 0 33.270784 25.68704-15.36 46.236672 38.391808-28.256256 38.388736 28.256256-15.356928-46.236672L683.292672 411.964416 683.292672 411.964416zM822.996992 617.470976l-31.03744 0-11.63776-31.153152-11.640832 31.153152-31.036416 0 25.218048 19.467264-11.640832 35.043328 29.101056-21.417984 29.094912 21.417984-11.63776-35.043328L822.996992 617.470976 822.996992 617.470976zM822.996992 617.470976" p-id="36130" fill="#000000"></path><path d="M505.042944 143.792128c-186.616832 17.376256-332.772352 175.099904-332.772352 367.340544 0 203.84768 164.299776 369.076224 366.944256 369.076224 114.719744 0 232.93952-53.016576 300.227584-135.948288-11.255808 1.05984-38.519808 1.747968-50.035712 1.747968-202.64448 0-366.944256-165.248-366.944256-369.091584C422.462464 288.472064 453.458944 207.383552 505.042944 143.792128L505.042944 143.792128zM505.042944 143.792128" p-id="36131" fill="#000000"></path></svg>