<?xml version="1.0" standalone="no"?><!DOCTYPE svg PUBLIC "-//W3C//DTD SVG 1.1//EN" "http://www.w3.org/Graphics/SVG/1.1/DTD/svg11.dtd"><svg t="1595857441339" class="icon" viewBox="0 0 1024 1024" version="1.1" xmlns="http://www.w3.org/2000/svg" p-id="19056" xmlns:xlink="http://www.w3.org/1999/xlink" width="48" height="48"><defs><style type="text/css"></style></defs><path d="M466.74 126.7c12.46-9.94 26.74-19.64 43.24-20.18 12.6 0.16 24.12 6.32 34.24 13.32 22.52 15.88 40.24 37.34 57.02 58.92 10.06 13.56 19.6 27.54 28.56 41.86 20.44 32.7 38.16 67.12 52.68 102.86 9.84 24.66 18.72 50.22 20.9 76.86 0.62 10.98 0.16 24.28-9.36 31.64-10.42 7.7-23.28 11.02-35.6 14.38-31.68 7.38-64.2 10.92-96.66 12.32-13.9-13.14-32.66-21.08-51.88-21.02 19.16-21.64 37.7-43.92 53.82-67.94 8.7-13.4 17.1-27.42 21.04-43.04 2.92-10.28-4.1-19.68-10.78-26.66-19.76-19.86-45.74-31.48-70.72-43.2-36.16-15.48-73.74-27.78-112.12-36.44 6.18-11.84 14.2-22.58 21.84-33.48 15.86-21.76 33.02-42.88 53.78-60.2z" fill="#FD810C" p-id="19057"></path><path d="M230.88 218.92c14.12-8.58 31-10.86 47.22-11.68 38.1-1.66 75.92 5.18 113.02 13.14 38.38 8.66 75.96 20.96 112.12 36.44 24.98 11.72 50.96 23.34 70.72 43.2 6.68 6.98 13.7 16.38 10.78 26.66-3.94 15.62-12.34 29.64-21.04 43.04-16.12 24.02-34.66 46.3-53.82 67.94-18.98-0.02-37.4 7.94-51.28 20.72-1.52-22.76-2.66-45.64-6.86-68.12-3.42-19.66-6.88-39.82-16.1-57.74-3.44-7.02-9.38-13.22-17.3-14.76-17.7-3.64-35.7 1.18-52.84 5.52-51.44 14.72-99.34 39.56-144.98 67.1-5.68-22.36-9.38-45.22-11.92-68.14-2.1-23.76-3.18-48.06 2.22-71.48 3.02-12.3 8.78-25.08 20.06-31.84z" fill="#DF4D48" p-id="19058"></path><path d="M629.8 220.62c40.02-8.12 80.88-16.06 121.9-12.06 15.4 1.86 31.98 5.04 43.62 16.12 11.1 11.54 14.48 28 16.42 43.36 3.82 41.32-3.66 82.58-12.3 122.84-9 36.72-20.14 73.02-34.8 107.92-10.9 24.54-22.48 49.26-39.68 70.12-6.6 7.6-14.88 15.18-25.3 16.36-9.54 0.06-18.42-4.26-26.84-8.28-32.92-17-60.6-42-88.98-65.42-0.36-19.56-8.14-39.04-22.08-52.9 32.46-1.4 64.98-4.94 96.66-12.32 12.32-3.36 25.18-6.68 35.6-14.38 9.52-7.36 9.98-20.66 9.36-31.64-2.18-26.64-11.06-52.2-20.9-76.86-14.52-35.74-32.24-70.16-52.68-102.86z" fill="#FFE124" p-id="19059"></path><path d="M365.5 323.28c17.14-4.34 35.14-9.16 52.84-5.52 7.92 1.54 13.86 7.74 17.3 14.76 9.22 17.92 12.68 38.08 16.1 57.74 4.2 22.48 5.34 45.36 6.86 68.12-12.68 13.72-20.7 31.48-22.4 50.1-23.34-19.72-46.6-39.76-72.58-56-12.1-7.46-24.8-14.86-39.04-17.14-9.48-1.54-17.9 4.66-24.32 10.9-16.16 16.18-26.68 36.88-36.64 57.2-18.84 40.56-32.76 83.32-43.02 126.8-29.76-19.08-59.36-39.26-83.5-65.34-13.1-13.1-25.28-28.38-29.74-46.7-3.78-19.22 7.72-37.08 19.26-51.36 26.46-30.82 59.76-54.86 93.9-76.46 45.64-27.54 93.54-52.38 144.98-67.1z" fill="#FF9ED0" p-id="19060"></path><path d="M799.44 390.88a107.04 107.04 0 0 1 13.58 7.94c24.06 16.16 47.68 33.38 67.92 54.24 12.98 12.94 24.94 27.68 31.04 45.2 4 11.02 1.2 23.26-4.08 33.36-7.22 15.3-18.84 27.9-30.88 39.54-23.34 23.08-50.56 41.76-78.04 59.5-40.26 24.28-82.3 46.04-126.82 61.36-20.76 6.46-42.22 13-64.22 11.62-7.56-0.36-15.44-3.28-19.9-9.68-7.42-10.54-11.06-23.2-14.28-35.52-7.22-31.06-10.68-62.9-11.92-94.72 13.44-13.98 21.58-32.7 22-52.14 28.38 23.42 56.06 48.42 88.98 65.42 8.42 4.02 17.3 8.34 26.84 8.28 10.42-1.18 18.7-8.76 25.3-16.36 17.2-20.86 28.78-45.58 39.68-70.12 14.66-34.9 25.8-71.2 34.8-107.92z" fill="#B3E32B" p-id="19061"></path><path d="M300.26 446.24c6.42-6.24 14.84-12.44 24.32-10.9 14.24 2.28 26.94 9.68 39.04 17.14 25.98 16.24 49.24 36.28 72.58 56 0.08 19.42 6.98 38.74 20.08 53.18-27.26 1.8-54.54 4.34-81.4 9.44-15.34 3.44-31.12 6.86-44.8 14.94-7.4 4.18-12.4 11.94-13.14 20.42-1.58 16.34 2.04 32.68 6.32 48.38 14.9 51.32 39.42 99.32 67.04 144.86-40.62 9.68-82.58 15.98-124.38 12.32-15.64-2.1-32.72-6-43.4-18.6-8.9-11.28-12.04-25.86-13.8-39.8-4.16-41.48 3.28-82.94 11.88-123.38 10.26-43.48 24.18-86.24 43.02-126.8 9.96-20.32 20.48-41.02 36.64-57.2z" fill="#6682EA" p-id="19062"></path><path d="M374.88 571.1c26.86-5.1 54.14-7.64 81.4-9.44 13.26 13.68 31.48 22.04 50.48 23.4-22.26 26-44.64 52.3-61.46 82.28-4.9 9.58-10.28 19.52-10.82 30.5-0.12 9.82 6.88 17.72 13.48 24.2 14.22 13.18 31.32 22.8 48.6 31.4 42.52 20.66 87.82 34.98 133.68 46.06-21.62 33.64-44.9 66.98-75.44 93.22-11 9.06-23.32 17.42-37.44 20.52-11.58 2.48-23.24-1.84-33.22-7.46-13.2-7.62-24.64-17.88-35.24-28.72-22.46-23.42-41.34-49.96-58.6-77.36-27.62-45.54-52.14-93.54-67.04-144.86-4.28-15.7-7.9-32.04-6.32-48.38 0.74-8.48 5.74-16.24 13.14-20.42 13.68-8.08 29.46-11.5 44.8-14.94z" fill="#13CBE6" p-id="19063"></path><path d="M506.76 585.06c20.28 0.44 40.5-7.2 55.08-21.34 1.24 31.82 4.7 63.66 11.92 94.72 3.22 12.32 6.86 24.98 14.28 35.52 4.46 6.4 12.34 9.32 19.9 9.68 22 1.38 43.46-5.16 64.22-11.62 44.52-15.32 86.56-37.08 126.82-61.36 8.68 35.7 14.22 72.52 13.1 109.34-0.94 16.58-2.88 33.96-11.74 48.4-5.56 9.34-15.46 15.12-25.58 18.32-19.6 6.12-40.42 6.2-60.74 5.36-28.24-1.64-56.18-6.52-83.78-12.58-45.86-11.08-91.16-25.4-133.68-46.06-17.28-8.6-34.38-18.22-48.6-31.4-6.6-6.48-13.6-14.38-13.48-24.2 0.54-10.98 5.92-20.92 10.82-30.5 16.82-29.98 39.2-56.28 61.46-82.28z" fill="#2CB43B" p-id="19064"></path></svg>