<?xml version="1.0" standalone="no"?><!DOCTYPE svg PUBLIC "-//W3C//DTD SVG 1.1//EN" "http://www.w3.org/Graphics/SVG/1.1/DTD/svg11.dtd"><svg t="1595938978332" class="icon" viewBox="0 0 1024 1024" version="1.1" xmlns="http://www.w3.org/2000/svg" p-id="9045" xmlns:xlink="http://www.w3.org/1999/xlink" width="48" height="48"><defs><style type="text/css"></style></defs><path d="M835.066646 430.008312h-0.068772c0.40117-11.794396 0.676258-23.63464 0.676258-35.715585 0-196.653497-93.598675-394.292727-323.744129-394.292727s-323.721206 197.627767-323.721206 394.292727c0 12.080946 0.309474 23.92119 0.664796 35.715585-15.989487 38.775939-58.456189 139.733216-80.921705 211.462398C64.086822 781.605096 78.276775 839.591344 89.119825 840.909473c23.210546 2.773803 90.412239-105.45038 90.41224-105.45038 0 62.720052 32.597922 144.478483 102.98605 203.565082-26.981543 8.023399-57.596539 19.657326-79.385797 35.623889-18.648671 13.662701-16.344809 27.508795-12.963519 33.182484 14.728667 24.677681 252.943369 15.760247 321.761204 8.023399 68.771987 7.691001 307.181543 16.608435 321.898748-8.023399 3.358365-5.627841 5.730999-19.485396-12.952058-33.182484-21.777796-15.966563-52.415716-27.623415-79.443107-35.623889 70.422515-59.086599 103.020437-140.84503 103.020437-203.565082 0 0 67.224617 108.270032 90.423701 105.45038 10.820126-1.306668 24.998617-60.588121-18.843525-199.438763-22.098732-70.078655-65.081224-172.68646-80.921705-211.462398" fill="#12B7F5" p-id="9046"></path></svg>