<?xml version="1.0" standalone="no"?><!DOCTYPE svg PUBLIC "-//W3C//DTD SVG 1.1//EN" "http://www.w3.org/Graphics/SVG/1.1/DTD/svg11.dtd"><svg t="1595858114460" class="icon" viewBox="0 0 1024 1024" version="1.1" xmlns="http://www.w3.org/2000/svg" p-id="30831" xmlns:xlink="http://www.w3.org/1999/xlink" width="48" height="48"><defs><style type="text/css"></style></defs><path d="M178.973675 946.610993c0 42.003624 73.301104 76.056362 163.72979 76.056362 90.423063 0 163.72979-34.05836 163.72979-76.056362 0-41.998001-73.306727-76.050739-163.72979-76.050738-90.428686-0.005623-163.72979 34.052737-163.72979 76.050738z m0 0" fill="#FFBD14" p-id="30832"></path><path d="M347.561715 1009.104739c-90.423063 0-163.72979-34.035868-163.729789-76.045116 0-1.883697 0.326133-3.739278 0.601658-5.606106a38.995332 38.995332 0 0 0-5.459909 19.185591c0 41.986755 73.301104 76.045116 163.72979 76.045116 86.346406 0 156.914744-31.055692 163.100016-70.444633-18.302784 32.686354-82.10106 56.865147-158.241766 56.865148z m0 0" fill="#EF9E0D" p-id="30833"></path><path d="M525.793158 946.610993c0 42.003624 73.306727 76.056362 163.72979 76.056362s163.724167-34.05836 163.724166-76.056362c0-41.998001-73.301104-76.050739-163.724166-76.050738s-163.72979 34.052737-163.72979 76.050738z m0 0" fill="#FFBD14" p-id="30834"></path><path d="M684.687189 1009.104739c90.423063 0 163.724167-34.035868 163.724167-76.045116 0-1.883697-0.326133-3.739278-0.596036-5.606106 3.435638 6.145912 5.459909 12.533612 5.459909 19.185591 0 41.986755-73.301104 76.045116-163.724166 76.045116-86.346406 0-156.914744-31.055692-163.10564-70.444633 18.274669 32.686354 82.10106 56.865147 158.241766 56.865148z m0 0" fill="#EF9E0D" p-id="30835"></path><path d="M880.316117 508.249476l-36.807996-118.183692C843.508121 5.296843 532.422646 4.020427 516.329691 4.020427c-16.717105 0-327.155939 1.282038-327.155939 386.045357l-36.830487 118.183692s-124.976245 156.942859-40.687848 293.53617c9.440975 6.533897 10.188831 30.532755 61.031772-77.023513 0 0 68.268541 240.522761 341.921871 242.569524v0.09559l1.720631-0.044984 1.72063 0.044984v-0.09559c273.636461-2.04114 341.921871-242.569524 341.921872-242.569524 50.871056 107.528153 51.894437 85.744748 61.031772 77.023513 84.282774-136.593312-40.687848-293.53617-40.687848-293.53617z m0 0" fill="#121214" p-id="30836"></path><path d="M530.651408 257.335457c0 33.22616 12.60671 63.927604 33.063094 80.543495 20.462006 16.615891 45.664181 16.615891 66.126188 0 20.456384-16.615891 33.057471-47.317336 33.05747-80.543495 0-51.365878-29.604964-93.004009-66.120564-93.004009-36.521223 0.005623-66.126187 41.638131-66.126188 93.004009z m0 0M360.66887 257.335457c0 51.360255 29.604964 92.998386 66.126188 92.998385 36.5156 0 66.120564-41.638131 66.120564-92.998385 0-51.365878-29.604964-93.004009-66.120564-93.004009-36.5156 0.005623-66.126187 41.638131-66.126188 93.004009z m0 0" fill="#FFFFFF" p-id="30837"></path><path d="M414.402021 257.335457c0 26.152457 15.075196 47.362319 33.664752 47.362319s33.670375-21.204239 33.670375-47.362319-15.075196-47.362319-33.670375-47.36232-33.664752 21.204239-33.664752 47.36232z m0 0" fill="#161616" p-id="30838"></path><path d="M555.763615 286.58055a6.972489 6.972489 0 0 1-6.95562-6.252748c-0.438592-4.161002-3.789885-41.148932 12.005052-58.658877 10.717391-11.903838 30.549624-11.903838 41.267015 0 15.794937 17.504322 12.393037 54.497875 11.976937 58.658877a6.74757 6.74757 0 0 1-7.675362 6.213387 7.006227 7.006227 0 0 1-6.230256-7.675361c1.006513-9.604042 1.445105-36.920455-8.440086-47.868387a13.75942 13.75942 0 0 0-20.518236 0c-9.935797 10.992916-9.491582 38.292461-8.4682 47.868387a6.983735 6.983735 0 0 1-6.23588 7.680984c-0.26428 0.033738-0.517314 0.033738-0.725364 0.033738z m0 0" fill="#181818" p-id="30839"></path><path d="M448.044281 244.194564c0 8.01274 4.616463 14.512899 10.323782 14.512899 5.701697 0 10.323782-6.494536 10.323783-14.512899 0-8.007117-4.622086-14.507276-10.323783-14.507276-5.701697 0.005623-10.323782 6.500159-10.323782 14.507276z m0 0" fill="#FFFFFF" p-id="30840"></path><path d="M692.919225 393.928768c-53.778134-25.179683-139.989589-33.428587-174.868904-33.428587-34.873692 0-121.085146 8.226413-174.868903 33.428587-25.663258 8.721234-35.852089 15.508165-35.85209 23.740201 0 8.232036 64.917248 56.685212 134.181056 86.217078 32.551403 16.464071 42.149822 30.527132 76.539937 30.527132 34.384493 0 43.966043-14.046192 76.539938-30.527132 69.263808-29.554357 134.175432-77.979419 134.175432-86.217078 0.005623-8.232036-10.183208-15.018967-35.846466-23.740201z m0 0" fill="#FAB718" p-id="30841"></path><path d="M347.561715 420.081226s71.681687 50.381857 166.142046 50.381857c94.465982 0 171.472626-50.381857 171.472627-50.381857s-57.146296 37.786393-101.230421 63.93885c-44.089748 26.15808-49.898281 33.43421-72.165263 33.43421-22.272604 0-50.871056-27.130855-63.708308-33.43421-12.831629-6.27524-48.200143-32.427698-100.510681-63.93885z m0 0" fill="#8C2B01" p-id="30842"></path><path d="M784.455637 468.770567c-112.414519 93.723749-268.103454 83.073834-268.103454 83.073835s-155.683312 10.649915-268.097831-83.073835c0 0-107.0502 482.215101 268.097831 482.215101 375.142408 0 268.103454-482.215101 268.103454-482.215101z m0 0" fill="#F9F9F9" p-id="30843"></path><path d="M843.553105 390.071407s-89.602109 160.822712-327.195299 160.822712-327.200923-160.822712-327.200923-160.822712c-37.775147 103.6483-36.802372 118.183691-36.802372 118.183692a453.543551 453.543551 0 0 0 129.08664 99.515413c-3.160112 34.547559-7.489803 87.724035-7.023096 114.832398 0.719741 42.149822 26.461721 45.062523 86.256438 50.871056 59.777849 5.808533 47.435418-10.188831 47.435419-37.061029v-84.890055c63.399045 12.207479 108.247894 7.877788 108.247894 7.877788s208.044457 21.327945 364.003294-151.12308c0-0.028115 0.978398-14.557883-36.807995-118.206183z m0 0" fill="#E32B10" p-id="30844"></path></svg>