<?xml version="1.0" standalone="no"?><!DOCTYPE svg PUBLIC "-//W3C//DTD SVG 1.1//EN" "http://www.w3.org/Graphics/SVG/1.1/DTD/svg11.dtd"><svg t="1595859552373" class="icon" viewBox="0 0 1024 1024" version="1.1" xmlns="http://www.w3.org/2000/svg" p-id="35322" xmlns:xlink="http://www.w3.org/1999/xlink" width="48" height="48"><defs><style type="text/css"></style></defs><path d="M239.945 741.79l-66.519 66.52c-12.217 12.21-12.217 32.177 0 44.386 12.208 12.21 32.175 12.21 44.385 0l66.52-66.52c12.209-12.209 12.209-32.175 0-44.386-12.21-12.215-32.177-12.215-44.386 0z m-19.078-474.031c12.333 12.333 32.43 12.333 44.771 0 12.333-12.341 12.333-32.438 0-44.771l-67.159-67.161c-12.334-12.333-32.432-12.333-44.773 0-12.332 12.341-12.332 32.438 0 44.772l67.161 67.16z m-88.908 214.692H36.952a31.59 31.59 0 0 0-31.673 31.667c0 17.557 14.247 31.673 31.673 31.673h95.007a31.594 31.594 0 0 0 31.672-31.673c0.001-17.42-14.245-31.667-31.672-31.667z m380.038-316.698a31.595 31.595 0 0 0 31.673-31.673V39.074A31.591 31.591 0 0 0 511.997 7.4a31.591 31.591 0 0 0-31.667 31.674v95.006c0 17.551 14.246 31.673 31.667 31.673z m304.742 88.014l66.521-66.521c12.216-12.21 12.216-32.181 0-44.392-12.21-12.208-32.176-12.208-44.386 0l-66.52 66.52c-12.21 12.21-12.21 32.182 0 44.393 12.21 12.333 32.177 12.333 44.385 0z m170.309 228.684h-95.007a31.59 31.59 0 0 0-31.672 31.667 31.59 31.59 0 0 0 31.672 31.673h95.007a31.595 31.595 0 0 0 31.673-31.673c0-17.42-14.123-31.667-31.673-31.667zM803.134 760.484c-12.341-12.334-32.431-12.334-44.771 0-12.334 12.34-12.334 32.431 0 44.771l67.158 67.153c12.334 12.34 32.432 12.34 44.766 0 12.34-12.334 12.34-32.432 0-44.765l-67.153-67.159zM511.997 228.962c-157.582 0-285.28 127.698-285.28 285.287s127.698 285.279 285.28 285.279c157.588 0 285.287-127.69 285.287-285.279S669.585 228.962 511.997 228.962z m0 633.528a31.59 31.59 0 0 0-31.667 31.672v95.008c0 17.549 14.116 31.672 31.667 31.672a31.594 31.594 0 0 0 31.673-31.672v-95.008c0-17.426-14.115-31.672-31.673-31.672z m0 0" fill="" p-id="35323"></path></svg>