<?xml version="1.0" standalone="no"?><!DOCTYPE svg PUBLIC "-//W3C//DTD SVG 1.1//EN" "http://www.w3.org/Graphics/SVG/1.1/DTD/svg11.dtd"><svg t="1595941695089" class="icon" viewBox="0 0 1034 1024" version="1.1" xmlns="http://www.w3.org/2000/svg" p-id="14231" xmlns:xlink="http://www.w3.org/1999/xlink" width="48.46875" height="48"><defs><style type="text/css"></style></defs><path d="M0 509.414c0 281.859 232.727 509.414 517.172 509.414s517.171-227.555 517.171-509.414S801.616 0 517.172 0 0 227.556 0 509.414z" fill="#1296db" p-id="14232" data-spm-anchor-id="a313x.7781069.0.i10" class=""></path><path d="M840.404 881.778c-46.545-28.445-206.869-23.273-222.384-69.818-5.172-12.93-5.172-31.03-5.172-49.132 0-41.373 5.172-85.333 5.172-85.333l-100.848-31.03-100.849 31.03s7.758 43.96 5.172 85.333c0 18.101-2.586 33.616-5.172 46.546-15.515 46.545-175.838 41.373-222.384 69.818-5.171 2.586-10.343 7.757-12.929 12.93 90.505 77.575 206.869 124.12 336.162 124.12s245.656-46.545 336.161-124.12c-2.586-2.587-7.757-7.758-12.929-10.344z" fill="#FCCCA7" p-id="14233"></path><path d="M517.172 651.636l-103.435 31.03s10.344 51.718 7.758 93.092c18.101 20.686 93.09 23.272 95.677 23.272 0 0 77.575-5.171 95.676-25.858 0-41.374 7.758-93.091 7.758-93.091l-103.434-28.445z" fill="#EFAD7D" p-id="14234"></path><path d="M522.343 1016.242h-5.171 5.171zM413.737 809.374c-15.515 46.545-178.424 41.373-224.97 69.818-5.171 2.586-7.757 7.757-12.929 12.93 90.505 77.575 209.455 124.12 338.748 124.12l-38.788-139.636c-46.545 0-59.475-72.404-62.06-67.232z m431.839 72.404c-46.546-28.445-206.869-20.687-222.384-67.233-2.586-7.757-15.515 62.061-67.232 62.061l-38.788 139.636c129.293 0 248.242-46.545 341.333-126.707-5.172-2.586-7.758-5.171-12.93-7.757z" fill="#4F77AA" p-id="14235"></path><path d="M268.93 416.323c-28.445 7.758-20.688 49.132-20.688 64.647s23.273 69.818 38.788 77.575c41.374 15.516 41.374-41.373 41.374-41.373v-67.233s-31.03-41.373-59.475-33.616z" fill="#FCCCA7" p-id="14236"></path><path d="M765.414 416.323c-28.444-7.757-56.889 33.616-56.889 33.616v67.233s0 59.474 41.374 41.373c15.515-7.757 38.788-62.06 38.788-77.575-2.586-12.93 5.172-54.303-23.273-64.647z" fill="#FBC69A" p-id="14237"></path><path d="M651.636 201.697c-72.404-59.475-199.11-59.475-274.1 0-74.99 62.06-77.576 131.879-77.576 230.141 0 100.849 7.757 129.293 7.757 129.293s12.93 74.99 28.445 93.091 31.03 28.445 77.575 67.233c43.96 36.202 64.647 41.373 98.263 41.373h5.172c33.616 0 56.889-2.586 98.262-41.373 46.546-38.788 62.06-49.132 77.576-67.233s28.445-93.09 28.445-93.09v-2.587s5.171-25.858 5.171-126.707c5.172-98.262 2.586-168.08-74.99-230.141z" fill="#FCCCA7" p-id="14238"></path><path d="M651.636 201.697c-36.202-31.03-85.333-43.96-137.05-43.96v605.091h2.586c33.616 0 56.889-2.586 98.262-41.373 46.546-38.788 62.06-49.132 77.576-67.233s28.445-93.09 28.445-93.09v-2.587s5.171-25.858 5.171-126.707c5.172-98.262 2.586-168.08-74.99-230.141z" fill="#FBC69A" p-id="14239"></path><path d="M421.495 447.354c-15.515 0-25.859 10.343-25.859 25.858s10.344 25.859 25.859 25.859 25.859-10.344 25.859-25.859-12.93-25.858-25.86-25.858z" fill="#683C11" p-id="14240"></path><path d="M618.02 390.465c-28.444 0-49.131 23.272-56.889 33.616s31.03-7.758 56.89-10.344c28.444-2.585 74.99 18.101 74.99 18.101s-33.617-41.373-74.99-41.373z" fill="#3B2314" p-id="14241"></path><path d="M612.848 447.354c-15.515 0-25.858 10.343-25.858 25.858s10.343 25.859 25.858 25.859 25.86-10.344 25.86-25.859-12.93-25.858-25.86-25.858z" fill="#432918" p-id="14242"></path><path d="M413.737 390.465c-41.373 0-74.99 41.373-74.99 41.373s43.96-18.1 74.99-15.515c25.859 2.586 64.647 18.101 56.89 10.344-7.758-12.93-25.86-36.202-56.89-36.202z" fill="#3B2314" p-id="14243"></path><path d="M421.495 447.354c-15.515 0-25.859 10.343-25.859 25.858s10.344 25.859 25.859 25.859 25.859-10.344 25.859-25.859-12.93-25.858-25.86-25.858z" fill="#432918" p-id="14244"></path><path d="M517.172 615.434h-38.788l-31.03-2.586v2.586l36.202 28.445 72.404 5.172 33.616-33.617-25.859-2.586z" fill="#FFFFFF" p-id="14245"></path><path d="M517.172 615.434l-49.132-2.586-5.171 2.586s-2.586 15.515 56.889 15.515 51.717-15.515 51.717-15.515h-54.303z" fill="#FFFFFF" p-id="14246"></path><path d="M519.758 610.263c-5.172 0-10.344-5.172-20.687-5.172-15.515 0-56.89 5.172-56.89 5.172s10.344 10.343 74.99 10.343c72.405 0 74.99-7.758 74.99-7.758s-36.201-7.757-49.13-5.171c-12.93 0-15.516 2.586-23.273 2.586z" fill="#EDA47E" p-id="14247"></path><path d="M519.758 643.879c-41.374 0-67.233-28.445-67.233-28.445l-7.757-2.586s23.272 49.132 74.99 46.546c59.474 0 74.99-46.546 74.99-46.546l-7.758 2.586c-2.586 0-23.273 28.445-67.232 28.445z" fill="#EDA47E" p-id="14248"></path><path d="M594.747 835.232l-77.575 12.93-72.404-18.101-137.05 56.888-2.587 85.334c64.647 28.444 137.05 43.96 212.04 43.96s147.395-15.516 212.041-43.96l-2.586-85.334-131.879-51.717z" fill="#4F77AA" p-id="14249" data-spm-anchor-id="a313x.7781069.0.i11" class=""></path><path d="M543.03 1024v-7.758c-7.757 7.758-18.1 7.758-25.858 7.758h25.858z m-49.131 0h23.273c-7.758 0-15.515 0-23.273-7.758V1024z m5.172-103.434l-7.758 95.676h49.131l-7.757-95.676H499.07z" fill="#30302E" p-id="14250"></path><path d="M517.172 845.576s-33.616 2.586-43.96 18.1c-18.1 33.617 25.859 62.061 25.859 62.061h33.616s36.202-25.858 25.858-51.717c-5.171-20.687-41.373-28.444-41.373-28.444z" fill="#1D1D1B" p-id="14251"></path><path d="M380.121 830.06l69.818 80.162 69.819-67.232-111.192-69.818z" fill="#829FC2" p-id="14252"></path><path d="M514.586 842.99l69.818 67.232 64.647-82.747-25.86-54.303z" fill="#829FC2" p-id="14253"></path><path d="M731.798 318.06s0-2.585 0 0c0-5.171 0-10.343-2.586-15.515-2.586-28.444-7.757-87.919-28.444-116.363 0 0-36.202-72.404-139.637-82.748-188.767-18.1-287.03 95.677-287.03 95.677s31.03 10.344 25.859 118.95c0 12.929-2.586 28.444-2.586 43.96v2.585c0 31.03 0 69.818 2.586 111.192 0 5.172 12.929 23.273 18.1-10.343 2.586-31.03 7.758-82.748 18.102-126.708 2.585-15.515 25.858-87.919 90.505-74.99 41.373 7.758 43.96 12.93 87.919 12.93 67.232 2.586 74.99-15.515 111.192-12.93 28.444 2.586 43.96 12.93 56.889 36.203 18.1 51.717 25.858 126.707 28.444 165.495 2.586 31.03 15.515 15.515 18.101 10.343 5.172-64.646 5.172-118.95 2.586-157.737z" fill="#3B2314" p-id="14254"></path><path d="M716.283 439.596v85.333c0 36.202-15.515 74.99-31.03 82.748-38.788 23.272-56.89-2.586-56.89-2.586s-15.515-20.687-54.302-36.202c-31.03-12.93-56.89 5.172-56.89 5.172s-23.272-15.516-56.888-5.172c-38.788 15.515-54.303 36.202-54.303 36.202s-15.515 28.444-56.89 2.586c-15.514-10.344-31.03-49.132-31.03-82.748v-85.333l-18.1 2.586s-12.93 137.05 15.515 193.94C330.99 664.565 380.12 729.211 442.182 768c23.273 15.515 49.131 18.101 72.404 18.101s49.131-5.172 72.404-18.101c62.06-36.202 111.192-103.434 126.707-131.879 28.444-56.889 15.515-193.94 15.515-193.94l-12.93-2.585zM589.576 667.152c-25.859 20.686-41.374 31.03-56.89 18.1-10.343-7.757-15.514-18.1-15.514-18.1s-5.172 10.343-15.515 18.1c-15.516 12.93-31.03 2.586-56.89-18.1s-15.514-62.061 12.93-64.647c67.232-5.172 59.475-15.515 59.475-15.515s-5.172 10.343 59.474 15.515c28.445 5.172 38.788 43.96 12.93 64.647z" fill="#3B2314" p-id="14255"></path><path d="M488.727 452.525c-7.757 2.586 5.172 20.687 5.172 20.687s25.859-12.93 43.96 2.586c7.757 5.172 10.343-20.687 10.343-20.687s-31.03-15.515-59.475-2.586z" fill="#1D1D1B" p-id="14256"></path><path d="M493.899 455.111s-10.343-28.444-108.606-31.03c-98.263 0-95.677 33.616-95.677 33.616s-7.757 87.92 103.435 90.505c111.191 0 106.02-74.99 106.02-74.99l-5.172-18.1z m-103.434 85.333c-80.162 0-82.748-54.303-82.748-67.232 0-20.687 12.93-38.788 82.748-38.788 59.474 0 95.676 12.93 95.676 36.202 0 25.859-18.1 69.818-95.676 69.818zM649.05 424.081c-98.263 0-108.607 28.444-108.607 28.444l-5.171 18.101s-5.172 74.99 106.02 74.99 103.434-87.919 103.434-87.919 2.586-31.03-95.676-33.616z m-7.758 116.363c-80.162 0-95.677-43.96-95.677-69.818 0-23.272 36.202-36.202 95.677-36.202 69.818 0 82.747 18.101 82.747 38.788 0 12.93-2.585 67.232-82.747 67.232z" fill="#1D1D1B" p-id="14257"></path><path d="M390.465 434.424c-69.819 0-82.748 18.101-82.748 38.788 0 12.93 2.586 67.232 82.748 67.232s95.676-43.96 95.676-69.818c0-23.272-36.202-36.202-95.676-36.202z" fill="#FDD6BA" p-id="14258"></path><path d="M641.293 434.424c-59.475 0-95.677 12.93-95.677 36.202 0 25.859 15.515 69.818 95.677 69.818s82.747-54.303 82.747-67.232c0-20.687-10.343-38.788-82.747-38.788z" fill="#FCD1B0" p-id="14259"></path><path d="M393.05 470.626c0 15.515 12.93 25.859 25.86 25.859 15.514 0 25.858-10.344 25.858-25.859 0-10.343-5.172-18.1-12.93-23.272s-18.1-5.172-25.858 0c-7.758 7.757-12.93 15.515-12.93 23.272z m191.354 2.586c0 15.515 12.93 25.859 25.859 25.859 15.515 0 25.858-10.344 25.858-25.859s-12.93-25.858-25.858-25.858-25.859 10.343-25.859 25.858z" fill="#695447" p-id="14260"></path></svg>