<?xml version="1.0" standalone="no"?><!DOCTYPE svg PUBLIC "-//W3C//DTD SVG 1.1//EN" "http://www.w3.org/Graphics/SVG/1.1/DTD/svg11.dtd"><svg t="1595858147659" class="icon" viewBox="0 0 1024 1024" version="1.1" xmlns="http://www.w3.org/2000/svg" p-id="31621" xmlns:xlink="http://www.w3.org/1999/xlink" width="48" height="48"><defs><style type="text/css"></style></defs><path d="M316.342857 316.342857c-21.942857 0-42.057143 14.628571-42.057143 34.742857 0 20.114286 21.942857 34.742857 42.057143 34.742857 20.114286 0 34.742857-14.628571 34.742857-34.742857 0-21.942857-14.628571-34.742857-34.742857-34.742857zM597.942857 515.657143c-12.8 0-27.428571 12.8-27.428571 27.428571s12.8 27.428571 27.428571 27.428572c21.942857 0 34.742857-14.628571 34.742857-27.428572s-14.628571-27.428571-34.742857-27.428571zM508.342857 385.828571c20.114286 0 34.742857-14.628571 34.742857-34.742857 0-21.942857-14.628571-34.742857-34.742857-34.742857-20.114286 0-40.228571 14.628571-42.057143 34.742857 0 20.114286 21.942857 34.742857 42.057143 34.742857z" fill="#09BB07" p-id="31622"></path><path d="M841.142857 0H182.857143C82.285714 0 0 82.285714 0 182.857143v658.285714c0 100.571429 82.285714 182.857143 182.857143 182.857143h658.285714c100.571429 0 182.857143-82.285714 182.857143-182.857143V182.857143c0-100.571429-82.285714-182.857143-182.857143-182.857143zM405.942857 667.428571c-34.742857 0-62.171429-7.314286-96.914286-14.628571l-96.914285 47.542857 27.428571-82.285714c-67.657143-49.371429-109.714286-111.542857-109.714286-186.514286 0-131.657143 124.342857-234.057143 276.114286-234.057143 135.314286 0 254.171429 82.285714 277.942857 193.828572-9.142857-1.828571-18.285714-1.828571-27.428571-1.828572-129.828571 0-234.057143 96.914286-234.057143 217.6 0 20.114286 3.657143 40.228571 9.142857 58.514286-9.142857 1.828571-16.457143 1.828571-25.6 1.828571z m405.942857 93.257143l20.114286 69.485715-74.971429-42.057143c-27.428571 7.314286-54.857143 14.628571-82.285714 14.628571-131.657143 0-234.057143-89.6-234.057143-199.314286s102.4-199.314286 234.057143-199.314285c124.342857 0 234.057143 89.6 234.057143 197.485714 0 62.171429-42.057143 117.028571-96.914286 159.085714z" fill="#09BB07" p-id="31623"></path><path d="M749.714286 515.657143c-12.8 0-27.428571 12.8-27.428572 27.428571s14.628571 27.428571 27.428572 27.428572c21.942857 0 34.742857-14.628571 34.742857-27.428572s-14.628571-27.428571-34.742857-27.428571z" fill="#09BB07" p-id="31624"></path></svg>