<?xml version="1.0" standalone="no"?><!DOCTYPE svg PUBLIC "-//W3C//DTD SVG 1.1//EN" "http://www.w3.org/Graphics/SVG/1.1/DTD/svg11.dtd"><svg t="1595861650710" class="icon" viewBox="0 0 1024 1024" version="1.1" xmlns="http://www.w3.org/2000/svg" p-id="38614" xmlns:xlink="http://www.w3.org/1999/xlink" width="48" height="48"><defs><style type="text/css"></style></defs><path d="M1018.63475 844.924409v5.998044c0 89.37085-72.976197 162.546982-162.147112 162.546982H167.512362c-89.170915 0-162.147112-73.176132-162.147112-162.546982v-688.375471c0-89.37085 72.976197-162.546982 162.147112-162.546982h689.175211c89.170915 0 162.147112 73.176132 162.147112 162.546982v524.029076l-0.199935 158.348351z m-739.758712-64.978805c-158.148416 0-204.733222-123.959568-125.75898-192.93707 26.391392-22.392696 72.976197-34.588718 99.367589-36.588066 93.169611-10.196674 180.341178 26.391392 283.707462 77.174828-74.77561 93.56948-166.145808 152.350308-257.316071 152.350308z m561.416882-144.152982c-40.586762-14.19537-95.168959-34.588718-156.149068-56.781479 36.388131-62.979458 64.778871-136.15559 85.172219-213.330418H568.781479v-71.176784H813.901528v-40.586762H568.581545v-119.760937h-99.367589c-18.194066 0-18.194066 18.194066-18.194066 18.194066v103.566219H203.900493v40.586762h247.319332v68.977501H246.486603v40.586762h397.270422c-14.19537 50.783436-34.388783 97.568176-56.78148 140.154286-127.758329-42.58611-265.513397-77.174828-352.684964-54.782132-54.782132 14.19537-91.170263 38.587414-111.563611 62.979458-95.168959 115.762242-26.391392 292.504593 174.343134 292.504593 119.561003 0 235.123309-66.978154 324.294224-176.742351 133.756372 64.978806 397.270422 174.743004 397.270422 174.743003v-156.349003s-32.389435-3.998696-178.34183-52.782784z" fill="#00A0E9" p-id="38615"></path></svg>